{
  "accessors": [
    {
      "bufferView": 2,
      "componentType": 5126,
      "count": 240,
      "max": [
        5.008030891418457,
        12.159194946289063,
        6.635641098022461
      ],
      "min": [
        -5.008030891418457,
        7.839767932891846,
        4.507226943969727
      ],
      "type": "VEC3"
    },
    {
      "bufferView": 2,
      "byteOffset": 2880,
      "componentType": 5126,
      "count": 240,
      "max": [
        0.8294268846511841,
        0.8206098079681396,
        0.9977156519889832
      ],
      "min": [
        -0.8294268846511841,
        -0.8412957191467285,
        -0.5333968997001648
      ],
      "type": "VEC3"
    },
    {
      "bufferView": 3,
      "componentType": 5126,
      "count": 240,
      "max": [
        0.9952676892280579,
        0.7362998127937317,
        0.8848798274993896,
        1.0
      ],
      "min": [
        -0.5448905229568481,
        -0.7053943872451782,
        -0.8787583708763123,
        1.0
      ],
      "type": "VEC4"
    },
    {
      "bufferView": 1,
      "componentType": 5126,
      "count": 240,
      "max": [
        0.984699010848999,
        0.1496729999780655
      ],
      "min": [
        0.0,
        0.0
      ],
      "type": "VEC2"
    },
    {
      "bufferView": 0,
      "componentType": 5125,
      "count": 336,
      "type": "SCALAR"
    },
    {
      "bufferView": 2,
      "byteOffset": 5760,
      "componentType": 5126,
      "count": 834,
      "max": [
        6.886043071746826,
        14.099807739257813,
        6.823441982269287
      ],
      "min": [
        -6.886043071746826,
        0.13992099463939667,
        2.0658130645751953
      ],
      "type": "VEC3"
    },
    {
      "bufferView": 2,
      "byteOffset": 15768,
      "componentType": 5126,
      "count": 834,
      "max": [
        1.0,
        0.9494102597236633,
        1.0
      ],
      "min": [
        -1.0,
        -0.9835942387580872,
        -0.9864740967750549
      ],
      "type": "VEC3"
    },
    {
      "bufferView": 3,
      "byteOffset": 3840,
      "componentType": 5126,
      "count": 834,
      "max": [
        0.9999487400054932,
        0.9219021201133728,
        0.998089075088501,
        1.0
      ],
      "min": [
        -0.7993212342262268,
        -0.9218181371688843,
        -0.9976056218147278,
        1.0
      ],
      "type": "VEC4"
    },
    {
      "bufferView": 1,
      "byteOffset": 1920,
      "componentType": 5126,
      "count": 834,
      "max": [
        0.6976940035820007,
        0.46497100591659546
      ],
      "min": [
        0.29818499088287354,
        1.2999999853491317e-05
      ],
      "type": "VEC2"
    },
    {
      "bufferView": 0,
      "byteOffset": 1344,
      "componentType": 5125,
      "count": 1248,
      "type": "SCALAR"
    },
    {
      "bufferView": 2,
      "byteOffset": 25776,
      "componentType": 5126,
      "count": 92,
      "max": [
        1.0642069578170776,
        7.02596378326416,
        6.635641098022461
      ],
      "min": [
        -1.0642069578170776,
        5.3983540534973145,
        5.947035789489746
      ],
      "type": "VEC3"
    },
    {
      "bufferView": 2,
      "byteOffset": 26880,
      "componentType": 5126,
      "count": 92,
      "max": [
        0.9493627548217773,
        0.907264769077301,
        0.9717640280723572
      ],
      "min": [
        -0.9493627548217773,
        -0.8796585202217102,
        -0.41239291429519653
      ],
      "type": "VEC3"
    },
    {
      "bufferView": 3,
      "byteOffset": 17184,
      "componentType": 5126,
      "count": 92,
      "max": [
        0.9988670349121094,
        0.6411476731300354,
        0.9987274408340454,
        1.0
      ],
      "min": [
        -0.248492032289505,
        -0.7243330478668213,
        -0.9876024723052979,
        1.0
      ],
      "type": "VEC4"
    },
    {
      "bufferView": 1,
      "byteOffset": 8592,
      "componentType": 5126,
      "count": 92,
      "max": [
        0.2244109958410263,
        0.06678500026464462
      ],
      "min": [
        0.14678600430488586,
        9.999999974752427e-07
      ],
      "type": "VEC2"
    },
    {
      "bufferView": 0,
      "byteOffset": 6336,
      "componentType": 5125,
      "count": 138,
      "type": "SCALAR"
    },
    {
      "bufferView": 2,
      "byteOffset": 27984,
      "componentType": 5126,
      "count": 686,
      "max": [
        10.95506763458252,
        15.9152193069458,
        4.8828301429748535
      ],
      "min": [
        -10.95506763458252,
        4.146345138549805,
        -6.82344388961792
      ],
      "type": "VEC3"
    },
    {
      "bufferView": 2,
      "byteOffset": 36216,
      "componentType": 5126,
      "count": 686,
      "max": [
        0.9972018599510193,
        0.9970183372497559,
        0.9824666380882263
      ],
      "min": [
        -0.9972018599510193,
        -0.992402970790863,
        -0.9812864661216736
      ],
      "type": "VEC3"
    },
    {
      "bufferView": 3,
      "byteOffset": 18656,
      "componentType": 5126,
      "count": 686,
      "max": [
        0.9992050528526306,
        0.9992934465408325,
        0.9981700778007507,
        1.0
      ],
      "min": [
        -0.9914687871932983,
        -0.8956102132797241,
        -0.9980873465538025,
        -1.0
      ],
      "type": "VEC4"
    },
    {
      "bufferView": 1,
      "byteOffset": 9328,
      "componentType": 5126,
      "count": 686,
      "max": [
        0.9965680241584778,
        0.8770390152931213
      ],
      "min": [
        0.003432000055909157,
        0.0716089978814125
      ],
      "type": "VEC2"
    },
    {
      "bufferView": 0,
      "byteOffset": 6888,
      "componentType": 5125,
      "count": 1014,
      "type": "SCALAR"
    },
    {
      "bufferView": 2,
      "byteOffset": 44448,
      "componentType": 5126,
      "count": 110,
      "max": [
        10.078662872314453,
        10.781986236572266,
        -2.128412961959839
      ],
      "min": [
        -10.078662872314453,
        7.902368068695068,
        -3.9438250064849854
      ],
      "type": "VEC3"
    },
    {
      "bufferView": 2,
      "byteOffset": 45768,
      "componentType": 5126,
      "count": 110,
      "max": [
        0.6298820376396179,
        0.703936755657196,
        0.9979128837585449
      ],
      "min": [
        -0.6298820376396179,
        -0.21406204998493195,
        0.6100777387619019
      ],
      "type": "VEC3"
    },
    {
      "bufferView": 3,
      "byteOffset": 29632,
      "componentType": 5126,
      "count": 110,
      "max": [
        0.989533007144928,
        0.9999138712882996,
        0.6165023446083069,
        1.0
      ],
      "min": [
        -0.664469301700592,
        -0.6713355183601379,
        -0.7676575183868408,
        1.0
      ],
      "type": "VEC4"
    },
    {
      "bufferView": 1,
      "byteOffset": 14816,
      "componentType": 5126,
      "count": 110,
      "max": [
        0.9675310254096985,
        0.7703970074653625
      ],
      "min": [
        0.3697749972343445,
        0.6488209962844849
      ],
      "type": "VEC2"
    },
    {
      "bufferView": 0,
      "byteOffset": 10944,
      "componentType": 5125,
      "count": 162,
      "type": "SCALAR"
    }
  ],
  "asset": {
    "extras": {
      "author": "KajaStud (https://sketchfab.com/KajaStud)",
      "license": "CC-BY-4.0 (http://creativecommons.org/licenses/by/4.0/)",
      "source": "https://sketchfab.com/3d-models/monkey-face-jade-2716092584b84c048034f41986b89e2a",
      "title": "Monkey Face Jade"
    },
    "generator": "Sketchfab-15.37.0",
    "version": "2.0"
  },
  "bufferViews": [
    {
      "buffer": 0,
      "byteLength": 11592,
      "name": "floatBufferViews",
      "target": 34963
    },
    {
      "buffer": 0,
      "byteLength": 15696,
      "byteOffset": 11592,
      "byteStride": 8,
      "name": "floatBufferViews",
      "target": 34962
    },
    {
      "buffer": 0,
      "byteLength": 47088,
      "byteOffset": 27288,
      "byteStride": 12,
      "name": "floatBufferViews",
      "target": 34962
    },
    {
      "buffer": 0,
      "byteLength": 31392,
      "byteOffset": 74376,
      "byteStride": 16,
      "name": "floatBufferViews",
      "target": 34962
    }
  ],
  "buffers": [
    {
      "byteLength": 105768,
      "uri": "scene.bin"
    }
  ],
  "images": [
    {
      "uri": "textures/Eyes_baseColor.jpeg"
    },
    {
      "uri": "textures/Eyes_metallicRoughness.png"
    },
    {
      "uri": "textures/Eyes_normal.png"
    },
    {
      "uri": "textures/mouth_baseColor.jpeg"
    },
    {
      "uri": "textures/mouth_metallicRoughness.png"
    },
    {
      "uri": "textures/mouth_normal.png"
    },
    {
      "uri": "textures/nose_baseColor.jpeg"
    },
    {
      "uri": "textures/nose_metallicRoughness.png"
    },
    {
      "uri": "textures/nose_normal.png"
    },
    {
      "uri": "textures/lambert1_baseColor.jpeg"
    },
    {
      "uri": "textures/lambert1_metallicRoughness.png"
    },
    {
      "uri": "textures/lambert1_normal.png"
    },
    {
      "uri": "textures/Inner_ears_baseColor.jpeg"
    },
    {
      "uri": "textures/Inner_ears_metallicRoughness.png"
    },
    {
      "uri": "textures/Inner_ears_normal.png"
    }
  ],
  "materials": [
    {
      "doubleSided": true,
      "name": "Eyes",
      "normalTexture": {
        "index": 2
      },
      "pbrMetallicRoughness": {
        "baseColorTexture": {
          "index": 0
        },
        "metallicRoughnessTexture": {
          "index": 1
        }
      }
    },
    {
      "doubleSided": true,
      "name": "mouth",
      "normalTexture": {
        "index": 5
      },
      "pbrMetallicRoughness": {
        "baseColorTexture": {
          "index": 3
        },
        "metallicRoughnessTexture": {
          "index": 4
        }
      }
    },
    {
      "doubleSided": true,
      "name": "nose",
      "normalTexture": {
        "index": 8
      },
      "pbrMetallicRoughness": {
        "baseColorTexture": {
          "index": 6
        },
        "metallicRoughnessTexture": {
          "index": 7
        }
      }
    },
    {
      "doubleSided": true,
      "name": "lambert1",
      "normalTexture": {
        "index": 11
      },
      "pbrMetallicRoughness": {
        "baseColorTexture": {
          "index": 9
        },
        "metallicRoughnessTexture": {
          "index": 10
        }
      }
    },
    {
      "doubleSided": true,
      "name": "Inner_ears",
      "normalTexture": {
        "index": 14
      },
      "pbrMetallicRoughness": {
        "baseColorTexture": {
          "index": 12
        },
        "metallicRoughnessTexture": {
          "index": 13
        }
      }
    }
  ],
  "meshes": [
    {
      "name": "defaultMaterial",
      "primitives": [
        {
          "attributes": {
            "NORMAL": 1,
            "POSITION": 0,
            "TANGENT": 2,
            "TEXCOORD_0": 3
          },
          "indices": 4,
          "material": 0,
          "mode": 4
        }
      ]
    },
    {
      "name": "defaultMaterial",
      "primitives": [
        {
          "attributes": {
            "NORMAL": 6,
            "POSITION": 5,
            "TANGENT": 7,
            "TEXCOORD_0": 8
          },
          "indices": 9,
          "material": 1,
          "mode": 4
        }
      ]
    },
    {
      "name": "defaultMaterial",
      "primitives": [
        {
          "attributes": {
            "NORMAL": 11,
            "POSITION": 10,
            "TANGENT": 12,
            "TEXCOORD_0": 13
          },
          "indices": 14,
          "material": 2,
          "mode": 4
        }
      ]
    },
    {
      "name": "defaultMaterial",
      "primitives": [
        {
          "attributes": {
            "NORMAL": 16,
            "POSITION": 15,
            "TANGENT": 17,
            "TEXCOORD_0": 18
          },
          "indices": 19,
          "material": 3,
          "mode": 4
        }
      ]
    },
    {
      "name": "defaultMaterial",
      "primitives": [
        {
          "attributes": {
            "NORMAL": 21,
            "POSITION": 20,
            "TANGENT": 22,
            "TEXCOORD_0": 23
          },
          "indices": 24,
          "material": 4,
          "mode": 4
        }
      ]
    }
  ],
  "nodes": [
    {
      "children": [
        1
      ],
      "matrix": [
        1.0,
        0.0,
        0.0,
        0.0,
        0.0,
        2.220446049250313e-16,
        -1.0,
        0.0,
        0.0,
        1.0,
        2.220446049250313e-16,
        0.0,
        0.0,
        0.0,
        0.0,
        1.0
      ],
      "name": "Sketchfab_model"
    },
    {
      "children": [
        2
      ],
      "matrix": [
        1.0,
        0.0,
        0.0,
        0.0,
        0.0,
        -4.371139006309477e-08,
        0.999999999999999,
        0.0,
        0.0,
        -0.999999999999999,
        -4.371139006309477e-08,
        0.0,
        0.0,
        0.0,
        0.0,
        1.0
      ],
      "name": "Collada visual scene group"
    },
    {
      "children": [
        3,
        4,
        5,
        6,
        7
      ],
      "name": "Suzanne"
    },
    {
      "mesh": 0,
      "name": "defaultMaterial"
    },
    {
      "mesh": 1,
      "name": "defaultMaterial"
    },
    {
      "mesh": 2,
      "name": "defaultMaterial"
    },
    {
      "mesh": 3,
      "name": "defaultMaterial"
    },
    {
      "mesh": 4,
      "name": "defaultMaterial"
    }
  ],
  "samplers": [
    {
      "magFilter": 9729,
      "minFilter": 9987,
      "wrapS": 10497,
      "wrapT": 10497
    }
  ],
  "scene": 0,
  "scenes": [
    {
      "name": "Sketchfab_Scene",
      "nodes": [
        0
      ]
    }
  ],
  "textures": [
    {
      "sampler": 0,
      "source": 0
    },
    {
      "sampler": 0,
      "source": 1
    },
    {
      "sampler": 0,
      "source": 2
    },
    {
      "sampler": 0,
      "source": 3
    },
    {
      "sampler": 0,
      "source": 4
    },
    {
      "sampler": 0,
      "source": 5
    },
    {
      "sampler": 0,
      "source": 6
    },
    {
      "sampler": 0,
      "source": 7
    },
    {
      "sampler": 0,
      "source": 8
    },
    {
      "sampler": 0,
      "source": 9
    },
    {
      "sampler": 0,
      "source": 10
    },
    {
      "sampler": 0,
      "source": 11
    },
    {
      "sampler": 0,
      "source": 12
    },
    {
      "sampler": 0,
      "source": 13
    },
    {
      "sampler": 0,
      "source": 14
    }
  ]
}
